<svg width="1440" height="800" viewBox="0 0 1440 800" fill="none" xmlns="http://www.w3.org/2000/svg">
<g clip-path="url(#clip0_1_2)">
<rect width="1440" height="800" transform="translate(1440 800) rotate(180)" fill="#0C091E"/>
<g filter="url(#filter0_f_1_2)">
<circle cx="247" cy="747" r="2" transform="rotate(180 247 747)" fill="white"/>
</g>
<circle cx="247" cy="747" r="2" transform="rotate(180 247 747)" fill="white"/>
<g filter="url(#filter1_f_1_2)">
<circle cx="1102" cy="715" r="2" transform="rotate(180 1102 715)" fill="white"/>
</g>
<circle cx="1102" cy="715" r="2" transform="rotate(180 1102 715)" fill="white"/>
<g filter="url(#filter2_f_1_2)">
<circle cx="1368" cy="741" r="2" transform="rotate(180 1368 741)" fill="white"/>
</g>
<circle cx="1368" cy="741" r="2" transform="rotate(180 1368 741)" fill="white"/>
<g filter="url(#filter3_f_1_2)">
<circle cx="424" cy="772" r="2" transform="rotate(180 424 772)" fill="white"/>
</g>
<circle cx="424" cy="772" r="2" transform="rotate(180 424 772)" fill="white"/>
<g filter="url(#filter4_f_1_2)">
<circle cx="503" cy="735" r="2" transform="rotate(180 503 735)" fill="white"/>
</g>
<circle cx="503" cy="735" r="2" transform="rotate(180 503 735)" fill="white"/>
<g filter="url(#filter5_f_1_2)">
<circle cx="49.9999" cy="735" r="2" transform="rotate(180 49.9999 735)" fill="white"/>
</g>
<circle cx="49.9999" cy="735" r="2" transform="rotate(180 49.9999 735)" fill="white"/>
<g filter="url(#filter6_f_1_2)">
<circle cx="763" cy="768" r="2" transform="rotate(180 763 768)" fill="white"/>
</g>
<circle cx="763" cy="768" r="2" transform="rotate(180 763 768)" fill="white"/>
<g filter="url(#filter7_f_1_2)">
<circle cx="477" cy="587" r="2" transform="rotate(180 477 587)" fill="white"/>
</g>
<circle cx="477" cy="587" r="2" transform="rotate(180 477 587)" fill="white"/>
<g filter="url(#filter8_f_1_2)">
<circle cx="320" cy="392" r="2" transform="rotate(180 320 392)" fill="white"/>
</g>
<circle cx="320" cy="392" r="2" transform="rotate(180 320 392)" fill="white"/>
<g filter="url(#filter9_f_1_2)">
<circle cx="141" cy="60.0001" r="2" transform="rotate(180 141 60.0001)" fill="white"/>
</g>
<circle cx="141" cy="60.0001" r="2" transform="rotate(180 141 60.0001)" fill="white"/>
<g filter="url(#filter10_f_1_2)">
<circle cx="422" cy="32.0001" r="2" transform="rotate(180 422 32.0001)" fill="white"/>
</g>
<circle cx="422" cy="32.0001" r="2" transform="rotate(180 422 32.0001)" fill="white"/>
<g filter="url(#filter11_f_1_2)">
<circle cx="128" cy="348" r="2" transform="rotate(180 128 348)" fill="white"/>
</g>
<circle cx="128" cy="348" r="2" transform="rotate(180 128 348)" fill="white"/>
<g filter="url(#filter12_f_1_2)">
<circle cx="45.9999" cy="136" r="2" transform="rotate(180 45.9999 136)" fill="white"/>
</g>
<circle cx="45.9999" cy="136" r="2" transform="rotate(180 45.9999 136)" fill="white"/>
<g filter="url(#filter13_f_1_2)">
<circle cx="39.9999" cy="482" r="2" transform="rotate(180 39.9999 482)" fill="white"/>
</g>
<circle cx="39.9999" cy="482" r="2" transform="rotate(180 39.9999 482)" fill="white"/>
<g filter="url(#filter14_f_1_2)">
<circle cx="806" cy="334" r="2" transform="rotate(180 806 334)" fill="white"/>
</g>
<circle cx="806" cy="334" r="2" transform="rotate(180 806 334)" fill="white"/>
<g filter="url(#filter15_f_1_2)">
<circle cx="635" cy="348" r="2" transform="rotate(180 635 348)" fill="white"/>
</g>
<circle cx="635" cy="348" r="2" transform="rotate(180 635 348)" fill="white"/>
<g filter="url(#filter16_f_1_2)">
<circle cx="497" cy="214" r="2" transform="rotate(180 497 214)" fill="white"/>
</g>
<circle cx="497" cy="214" r="2" transform="rotate(180 497 214)" fill="white"/>
<g filter="url(#filter17_f_1_2)">
<circle cx="39.9999" cy="293" r="2" transform="rotate(180 39.9999 293)" fill="white"/>
</g>
<circle cx="39.9999" cy="293" r="2" transform="rotate(180 39.9999 293)" fill="white"/>
<g filter="url(#filter18_f_1_2)">
<circle cx="262" cy="326" r="2" transform="rotate(180 262 326)" fill="white"/>
</g>
<circle cx="262" cy="326" r="2" transform="rotate(180 262 326)" fill="white"/>
<g filter="url(#filter19_f_1_2)">
<circle cx="1085" cy="770" r="2" transform="rotate(180 1085 770)" fill="white"/>
</g>
<circle cx="1085" cy="770" r="2" transform="rotate(180 1085 770)" fill="white"/>
<g filter="url(#filter20_f_1_2)">
<circle cx="1397" cy="594" r="2" transform="rotate(180 1397 594)" fill="white"/>
</g>
<circle cx="1397" cy="594" r="2" transform="rotate(180 1397 594)" fill="white"/>
<g filter="url(#filter21_f_1_2)">
<circle cx="499" cy="497" r="2" transform="rotate(180 499 497)" fill="white"/>
</g>
<circle cx="499" cy="497" r="2" transform="rotate(180 499 497)" fill="white"/>
<g filter="url(#filter22_f_1_2)">
<circle cx="879" cy="593" r="2" transform="rotate(180 879 593)" fill="white"/>
</g>
<circle cx="879" cy="593" r="2" transform="rotate(180 879 593)" fill="white"/>
<g filter="url(#filter23_f_1_2)">
<circle cx="812" cy="491" r="2" transform="rotate(180 812 491)" fill="white"/>
</g>
<circle cx="812" cy="491" r="2" transform="rotate(180 812 491)" fill="white"/>
<g filter="url(#filter24_f_1_2)">
<circle cx="593" cy="70.0002" r="2" transform="rotate(180 593 70.0002)" fill="white"/>
</g>
<circle cx="593" cy="70.0002" r="2" transform="rotate(180 593 70.0002)" fill="white"/>
<g filter="url(#filter25_f_1_2)">
<circle cx="917" cy="278" r="2" transform="rotate(180 917 278)" fill="white"/>
</g>
<circle cx="917" cy="278" r="2" transform="rotate(180 917 278)" fill="white"/>
<g filter="url(#filter26_f_1_2)">
<circle cx="822" cy="118" r="2" transform="rotate(180 822 118)" fill="white"/>
</g>
<circle cx="822" cy="118" r="2" transform="rotate(180 822 118)" fill="white"/>
<g filter="url(#filter27_f_1_2)">
<circle cx="1097" cy="64.0001" r="2" transform="rotate(180 1097 64.0001)" fill="white"/>
</g>
<circle cx="1097" cy="64.0001" r="2" transform="rotate(180 1097 64.0001)" fill="white"/>
<g filter="url(#filter28_f_1_2)">
<circle cx="1397" cy="34.0001" r="2" transform="rotate(180 1397 34.0001)" fill="white"/>
</g>
<circle cx="1397" cy="34.0001" r="2" transform="rotate(180 1397 34.0001)" fill="white"/>
<g filter="url(#filter29_f_1_2)">
<circle cx="1169" cy="486" r="2" transform="rotate(180 1169 486)" fill="white"/>
</g>
<circle cx="1169" cy="486" r="2" transform="rotate(180 1169 486)" fill="white"/>
<g filter="url(#filter30_f_1_2)">
<circle cx="1339" cy="279" r="2" transform="rotate(180 1339 279)" fill="white"/>
</g>
<circle cx="1339" cy="279" r="2" transform="rotate(180 1339 279)" fill="white"/>
<g filter="url(#filter31_f_1_2)">
<circle cx="1285" cy="153" r="2" transform="rotate(180 1285 153)" fill="white"/>
</g>
<circle cx="1285" cy="153" r="2" transform="rotate(180 1285 153)" fill="white"/>
<path d="M430.523 382C422.098 452.208 359.491 467.31 305.523 513C278.936 535.509 260.522 543.815 234.523 567C188.619 607.936 194.189 697.667 132.523 687C70.856 676.334 7.59606 698.211 -22.9774 643C-57.8879 579.958 11.5226 585.5 55.5226 476C99.5226 366.5 -4.83582 383.687 -2.47743 318C-0.976122 276.186 26.8161 256.841 27.0226 215C27.2954 159.695 -45.5213 133.003 -22.9775 82.5001C4.51724 20.9065 148.523 62.0001 148.523 62.0001C200.356 52.0001 364.225 11.9597 371.523 100C375.8 151.604 309.904 163.405 305.523 215C298.629 296.171 440.228 301.117 430.523 382Z" fill="#E5E5E5" fill-opacity="0.06"/>
<g clip-path="url(#clip1_1_2)">
<path d="M306.809 225.624C366.074 220.041 397.976 149.889 358.718 101.988C340.576 79.7675 310.28 68.776 280.419 76.4196C264.422 80.5195 250.59 89.6156 240.736 101.452C197.707 152.866 238.239 232.124 306.809 225.624Z" fill="url(#paint0_radial_1_2)"/>
<path d="M299.608 94.9724C320.444 94.9724 338.597 106.448 347.994 123.394C368.727 160.757 340.13 206.114 298.385 204.785C271.83 204.249 249.398 184.79 245.119 158.913C239.503 125.516 265.458 94.9724 299.608 94.9724Z" fill="url(#paint1_radial_1_2)"/>
<g opacity="0.75">
<path d="M277.674 141.009C279.963 141.576 280.595 138.743 279.3 138.104C278.005 137.455 274.752 135.518 274.099 136.816C273.446 138.104 275.073 140.36 277.674 141.009Z" fill="#056DB1"/>
<path d="M254.931 164.908C257.149 164.403 259.801 163.291 257.532 161.674C255.252 160.056 251.688 160.705 251.357 162.642C251.036 164.589 250.704 165.877 254.931 164.908Z" fill="#056DB1"/>
<path d="M299.442 112.907C304.208 115.75 311.14 116.78 311.793 113.875C312.445 110.97 307.897 106.448 302.374 107.097C296.842 107.736 296.189 110.97 299.442 112.907Z" fill="#056DB1"/>
<path d="M283.901 97.2284C288.2 95.9613 292.718 95.199 297.391 95.0239C296.323 101.751 289.889 99.6286 286.449 98.7015C285.444 98.4233 284.605 97.8774 283.901 97.2284Z" fill="#056DB1"/>
<path d="M329.655 113.226C327.552 112.31 326.081 116.78 329.002 120.654C331.924 124.527 333.23 129.379 336.804 130.347C340.379 131.316 342.327 118.717 329.655 113.226Z" fill="#056DB1"/>
<path d="M343.953 129.06C345.103 128.854 345.58 126.474 342.979 126.155C340.379 125.825 340.379 129.698 343.953 129.06Z" fill="#056DB1"/>
<path d="M315.036 142.297C317.325 142.503 319.584 141.328 319.263 138.743C318.942 136.157 315.367 138.743 313.741 138.743C312.114 138.743 311.461 141.977 315.036 142.297Z" fill="#056DB1"/>
<path d="M292.614 172.335C294.583 173.263 294.894 169.101 293.267 168.462C291.64 167.813 287.092 169.76 292.614 172.335Z" fill="#056DB1"/>
</g>
<path d="M313.409 151.341C324.454 149.405 326.081 149.085 336.151 140.679C342.814 135.127 349.766 136.919 353.703 138.774C354.439 142.358 354.833 146.077 354.833 149.889C354.833 165.506 348.274 179.608 337.747 189.6C335.582 188.323 333.344 186.592 331.603 184.285C326.733 177.826 327.707 175.24 313.409 167.813C299.121 160.386 302.364 153.278 313.409 151.341Z" fill="url(#paint2_linear_1_2)"/>
<path d="M249.688 173.417C259.884 175.539 266.836 164.074 273.778 164.908C281.901 165.877 279.622 177.826 286.45 190.425C289.869 196.729 290.107 201.097 289.496 203.878C271.851 200.644 257.159 189.065 249.688 173.417Z" fill="url(#paint3_linear_1_2)"/>
<path d="M244.373 149.889C244.373 128.575 256.578 110.105 274.42 100.999C278.492 107.396 271.892 112.145 264.028 117.1C254.278 123.239 263.375 125.825 261.759 135.838C260.132 145.851 266.307 146.5 263.386 154.895C261.303 160.891 250.445 155.204 244.404 151.455C244.383 150.94 244.373 150.414 244.373 149.889Z" fill="url(#paint4_linear_1_2)"/>
<path d="M296.189 133.252C302.095 131.429 305.286 138.423 312.756 136.806C320.227 135.189 326.402 121.952 316.331 122.271C306.26 122.59 303.659 123.888 296.189 118.717C288.719 113.546 279.943 117.1 277.342 125.176C274.752 133.252 276.379 139.392 296.189 133.252Z" fill="url(#paint5_linear_1_2)"/>
<path d="M283.849 157.481C286.957 156.492 287.745 154.895 286.771 152.959C285.797 151.022 281.901 151.341 279.953 148.436C278.005 145.531 273.125 141.977 271.83 148.436C270.525 154.895 276.7 159.747 283.849 157.481Z" fill="url(#paint6_linear_1_2)"/>
<path opacity="0.5" d="M295.215 174.282C295.795 169.976 299.763 174.282 306.26 175.57C312.756 176.858 315.357 180.741 312.435 183.327C309.513 185.913 305.617 187.849 301.711 185.593C297.816 183.327 294.573 179.124 295.215 174.282Z" fill="#056DB1"/>
<path d="M302.043 199.799C310.166 199.799 314.062 195.276 321.532 192.691C325.987 191.156 329.51 192.938 331.634 194.627C322.599 201.035 311.544 204.805 299.598 204.805C299.183 204.805 298.779 204.805 298.375 204.785C297.805 202.456 298.012 199.799 302.043 199.799Z" fill="url(#paint7_linear_1_2)"/>
<path opacity="0.45" d="M247.005 133.087C251.512 119.129 261.49 107.602 274.42 100.999C277.435 99.4638 280.606 98.1968 283.901 97.2182C288.2 95.9511 292.718 95.1888 297.391 95.0137C298.126 94.9828 298.862 94.9725 299.608 94.9725C320.444 94.9725 338.597 106.448 347.994 123.394C350.626 128.132 352.574 133.304 353.703 138.774C354.439 142.359 354.833 146.077 354.833 149.889C354.833 156.523 353.651 162.879 351.486 168.761C345.238 150.208 330.94 126.268 298.437 121.828C292.096 120.963 286.17 120.849 280.637 121.323C267.064 122.508 255.895 127.226 247.005 133.087Z" fill="url(#paint8_linear_1_2)"/>
<path opacity="0.45" d="M244.373 149.889C244.373 144.027 245.295 138.382 247.005 133.087C251.512 119.129 261.49 107.602 274.42 100.999C277.435 99.4639 280.606 98.1968 283.901 97.2182C288.201 95.9511 292.718 95.1888 297.391 95.0137C298.126 94.9828 298.862 94.9725 299.608 94.9725C320.444 94.9725 338.597 106.448 347.994 123.394C338.441 119.49 327.065 116.822 313.575 116.296C300.489 115.781 289.63 117.79 280.637 121.334C261.303 128.936 250.528 143.646 244.684 155.761C244.529 154.349 244.435 152.907 244.394 151.465C244.384 150.94 244.373 150.414 244.373 149.889Z" fill="url(#paint9_linear_1_2)"/>
<path d="M245.109 158.882C245.109 158.882 252.973 187.52 289.133 196.946C310.808 202.601 325.853 197.502 334.421 192.516C307.058 214.726 265.209 205.908 249.688 173.417C246.083 165.887 245.368 159.933 245.109 158.882Z" fill="url(#paint10_linear_1_2)"/>
</g>
<path d="M1353.63 1007.94C1675.93 977.352 1849.36 593.423 1635.91 331.206C1537.29 209.563 1372.54 149.378 1210.12 191.267C1123.09 213.731 1047.91 263.462 994.336 328.239C760.339 609.741 980.713 1043.54 1353.63 1007.94Z" fill="url(#paint11_radial_1_2)"/>
<path d="M992.641 594.765C992.641 575.974 994.265 557.537 997.371 539.665C999.065 530.058 1001.11 520.592 1003.58 511.268C1017.28 460.124 1043.25 414.067 1078.12 376.345C1090.76 362.641 1104.59 350.067 1119.49 338.764C1133.18 328.31 1147.79 318.914 1163.11 310.72C1183.86 299.63 1205.96 290.8 1229.11 284.442C1256.14 277.025 1284.59 273.14 1313.96 273.14C1327.44 273.14 1340.71 273.987 1353.7 275.612C1462.54 289.034 1554.59 356.99 1601.6 451.294C1619.95 488.027 1631.46 528.716 1634.49 571.736C1635.06 579.365 1635.34 587.065 1635.34 594.765C1635.34 643.295 1624.61 689.281 1605.41 730.535C1588.26 767.41 1564.26 800.469 1535.18 828.09C1508.28 853.661 1476.94 874.641 1442.42 889.688C1403.11 906.853 1359.63 916.39 1314.03 916.39C1175.46 916.39 1057.37 828.655 1012.26 705.599C1001.04 674.941 994.336 642.164 992.924 607.904C992.712 603.595 992.641 599.215 992.641 594.765Z" fill="url(#paint12_radial_1_2)"/>
<path d="M1349.25 505.97C1349.67 503.356 1350.59 500.884 1351.93 498.623C1362.16 480.257 1397.81 471.215 1437.55 478.067C1472.14 484.071 1499.74 500.46 1508.63 518.261C1511.25 523.489 1512.23 528.787 1511.32 534.085C1507.29 557.255 1468.4 562.835 1423.65 554.994C1378.89 547.294 1345.22 529.14 1349.25 505.97Z" fill="#BCBCBC"/>
<path d="M1444.47 659.118L1444.54 659.047C1453.44 645.626 1481.18 657.917 1513.43 679.039C1539.76 696.275 1558.54 713.44 1559.81 726.509C1560.09 729.476 1559.46 732.301 1557.83 734.844C1548.94 748.407 1513.65 749.326 1481.32 728.134C1448.99 706.941 1435.58 672.681 1444.47 659.118Z" fill="#BCBCBC"/>
<path d="M1088.43 461.042C1114.47 439.285 1145.67 433.705 1158.03 448.61C1158.66 449.387 1159.23 450.164 1159.72 451.012C1169.18 466.482 1157.89 494.243 1133.18 514.8C1108.05 535.78 1078.19 541.714 1064.99 528.787C1064.5 528.292 1064 527.798 1063.58 527.303C1051.23 512.398 1062.31 482.729 1088.43 461.042Z" fill="#BCBCBC"/>
<path d="M1276.33 639.409C1302.66 618.57 1329.41 607.056 1344.73 626.411C1346.21 628.248 1347.41 630.226 1348.47 632.345C1358.21 651.983 1348.61 680.451 1324.75 699.312C1298.43 720.151 1262.5 729.97 1238 698.959C1237.86 698.747 1237.65 698.535 1237.58 698.323C1223.18 679.18 1250.21 660.036 1276.33 639.409Z" fill="#BCBCBC"/>
<path d="M1381.51 348.371C1385.32 344.698 1392.87 342.649 1404.73 343.215C1448.21 345.122 1495.44 398.102 1482.24 415.126C1482.02 415.409 1481.81 415.621 1481.6 415.833C1467.91 431.303 1433.6 403.471 1416.1 394.287C1387.23 379.17 1371.41 358.049 1381.51 348.371Z" fill="#BCBCBC"/>
<path d="M1210.97 387.436C1210.9 377.405 1224.52 366.809 1245.98 365.89C1285.23 364.195 1307.6 371.753 1312.9 385.74C1313.46 387.224 1313.81 388.778 1314.03 390.473C1315.93 407.497 1280 404.601 1261.08 405.59C1225.58 407.497 1211.04 397.749 1210.97 387.436Z" fill="#BCBCBC"/>
<path d="M1092.03 613.131C1096.33 606.703 1104.66 602.323 1115.46 602.323C1149.49 602.323 1194.87 626.906 1189.16 649.652C1188.52 652.266 1187.53 654.526 1186.4 656.363C1177.65 670.491 1155.56 663.639 1134.31 659.118C1091.82 650.076 1082.71 626.906 1092.03 613.131Z" fill="#BCBCBC"/>
<path d="M1202.5 780.196C1202.92 781.184 1203.13 782.315 1203.27 783.516C1204.12 793.193 1194.59 807.321 1176.03 812.407C1163.96 815.728 1147.65 815.304 1137.56 809.087C1133.11 806.332 1129.93 802.518 1128.73 797.29C1125.91 784.293 1196.5 765.149 1202.5 780.196Z" fill="#BCBCBC"/>
<path d="M1039.94 691.259C1041.42 690.553 1043.18 690.412 1045.09 690.906C1052.99 692.955 1063.3 705.105 1066.41 723.401C1068.17 734.138 1062.81 744.451 1055.82 747.701C1048.05 751.374 1038.24 746.288 1034.29 723.401C1031.96 710.403 1032.31 695.074 1039.94 691.259Z" fill="#BCBCBC"/>
<path d="M1078.12 376.345C1102.47 349.996 1131.2 327.745 1163.11 310.791C1166.71 312.557 1169.96 315.171 1171.23 318.915C1172.36 322.235 1171.86 326.473 1168.4 331.842C1155.2 352.681 1141.93 384.822 1111.72 386.729C1102.9 387.294 1095.91 386.235 1090.33 384.257C1084.97 382.279 1081.02 379.453 1078.12 376.345Z" fill="#BCBCBC"/>
<path d="M1229.18 284.512C1256.21 277.095 1284.66 273.21 1314.03 273.21C1327.51 273.21 1340.78 274.058 1353.77 275.682C1353.77 279.497 1353.06 283.594 1350.73 287.056C1348.47 290.376 1344.73 293.06 1338.59 294.049C1315.93 297.863 1304.57 312.98 1272.45 311.073C1255.79 310.084 1244.14 301.961 1236.87 294.402C1233.27 290.588 1230.8 287.056 1229.18 284.512Z" fill="#BCBCBC"/>
<path d="M1368.8 445.36C1377.27 449.599 1383.91 452.919 1382 435.895C1380.1 418.87 1366.9 415.056 1355.53 415.056C1344.24 415.056 1361.25 441.546 1368.8 445.36Z" fill="#9B9B9B"/>
<path d="M992.642 594.765C992.642 575.974 994.266 557.537 997.372 539.665C1000.12 540.725 1002.95 542.632 1005.91 545.599C1024.83 564.531 1010.5 591.374 1005.91 600.487C1000.83 610.659 995.748 609.741 992.924 607.975C992.713 603.595 992.642 599.215 992.642 594.765Z" fill="#9B9B9B"/>
<path d="M1187.32 573.997C1198.26 575.339 1204.33 566.438 1187.32 558.88C1170.31 551.251 1172.22 572.089 1187.32 573.997Z" fill="#9B9B9B"/>
<path d="M1325.32 791.498C1330.97 789.591 1338.52 783.939 1325.32 782.032C1312.12 780.195 1319.67 793.405 1325.32 791.498Z" fill="#9B9B9B"/>
<path d="M1293.2 791.498C1300.12 795.524 1300.76 776.381 1295.11 768.822C1289.46 761.264 1270.54 778.288 1293.2 791.498Z" fill="#9B9B9B"/>
<path d="M1232.71 343.144C1236.8 342.226 1238.36 335.586 1227.06 331.771C1215.7 328.027 1215.7 346.959 1232.71 343.144Z" fill="#9B9B9B"/>
<path d="M1397.18 311.003C1402.82 309.095 1408.54 305.351 1397.18 301.537C1385.81 297.793 1391.53 312.91 1397.18 311.003Z" fill="#9B9B9B"/>
<path d="M1387.72 589.114C1397.32 588.619 1376.35 575.904 1370.71 573.997C1365.06 572.089 1348.05 591.021 1387.72 589.114Z" fill="#9B9B9B"/>
<path d="M1077.7 638.279C1082.43 634.606 1073.89 613.696 1066.34 615.604C1058.78 617.511 1060.69 651.56 1077.7 638.279Z" fill="#9B9B9B"/>
<path d="M1229.74 505.687C1230.59 502.438 1231.65 499.259 1232.71 496.433C1238.21 481.669 1270.75 475.877 1279.37 482.658C1279.58 482.8 1279.79 483.012 1280 483.223C1287.55 490.782 1280.21 509.784 1276.19 519.179C1270.54 532.389 1242.17 541.855 1232.71 538.111C1225.08 534.932 1226.07 519.462 1229.74 505.687Z" fill="#BCBCBC"/>
<path d="M1559.81 726.438C1560.09 729.405 1559.46 732.231 1557.83 734.774C1548.94 748.337 1513.65 749.255 1481.32 728.063C1448.99 706.871 1435.58 672.61 1444.47 659.047L1444.54 658.977C1444.05 667.242 1447.51 678.827 1459.58 695.003C1491.06 737.034 1548.45 751.515 1559.81 726.438Z" fill="#9B9B9B"/>
<path d="M1349.25 505.97C1349.67 503.356 1350.59 500.884 1351.93 498.623C1352.71 501.873 1359.69 527.374 1391.53 538.041C1424.56 549.06 1469.03 558.879 1495.5 538.041C1503.98 531.4 1507.58 524.548 1508.63 518.332C1511.25 523.559 1512.23 528.857 1511.32 534.155C1507.29 557.325 1468.4 562.906 1423.65 555.065C1378.89 547.294 1345.22 529.14 1349.25 505.97Z" fill="#9B9B9B"/>
<path d="M1297.01 704.539C1332.17 692.389 1346.99 657.917 1348.47 632.345C1358.21 651.983 1348.61 680.451 1324.75 699.312C1298.43 720.151 1262.5 729.97 1238 698.959C1237.86 698.747 1237.65 698.535 1237.58 698.323C1248.17 706.517 1267.44 714.712 1297.01 704.539Z" fill="#9B9B9B"/>
<path d="M1229.74 505.687C1230.1 519.391 1233.48 534.862 1247.81 530.482C1262.5 525.961 1279.15 499.329 1279.3 482.658C1279.51 482.8 1279.72 483.012 1279.93 483.223C1287.48 490.782 1280.14 509.784 1276.12 519.179C1270.47 532.389 1242.1 541.855 1232.64 538.111C1225.08 534.932 1226.07 519.462 1229.74 505.687Z" fill="#9B9B9B"/>
<path d="M1092.03 613.131C1087.72 638.067 1127.67 646.12 1147.65 653.396C1167.42 660.601 1180.97 658.058 1186.47 656.363C1177.72 670.491 1155.63 663.639 1134.38 659.118C1091.82 650.076 1082.71 626.906 1092.03 613.131Z" fill="#9B9B9B"/>
<path d="M1202.5 780.195C1202.92 781.184 1203.13 782.315 1203.27 783.515C1191.34 775.604 1160.78 782.032 1143.91 789.661C1131.84 795.171 1133.81 803.224 1137.56 809.017C1133.11 806.262 1129.93 802.447 1128.73 797.22C1125.91 784.293 1196.5 765.149 1202.5 780.195Z" fill="#9B9B9B"/>
<path d="M1381.51 348.371C1383.13 358.543 1392.45 368.433 1408.54 377.263C1429.37 388.636 1444.47 399.939 1457.67 409.404C1464.59 414.349 1474.12 415.691 1481.6 415.833C1467.91 431.303 1433.6 403.471 1416.1 394.287C1387.22 379.17 1371.41 358.049 1381.51 348.371Z" fill="#9B9B9B"/>
<path d="M1210.97 387.436C1214 394.994 1223.18 398.102 1238.43 398.102L1291.37 398.102C1311.63 398.102 1312.9 386.376 1312.9 385.811C1313.46 387.294 1313.81 388.848 1314.03 390.544C1315.93 407.568 1280 404.672 1261.08 405.661C1225.58 407.497 1211.04 397.749 1210.97 387.436Z" fill="#9B9B9B"/>
<path d="M1236.87 294.332C1233.27 290.658 1230.8 287.056 1229.18 284.513C1256.21 277.095 1284.66 273.21 1314.03 273.21C1327.51 273.21 1340.78 274.058 1353.77 275.683C1353.77 279.497 1353.06 283.594 1350.73 287.056C1287.91 272.221 1251.7 285.996 1236.87 294.332Z" fill="#9B9B9B"/>
<path d="M1078.12 376.345C1102.48 349.996 1131.2 327.744 1163.11 310.791C1166.71 312.557 1169.96 315.17 1171.23 318.914C1118.5 338.693 1095.7 374.508 1090.33 384.186C1084.97 382.279 1081.02 379.453 1078.12 376.345Z" fill="#9B9B9B"/>
<path d="M1064.99 528.787C1069.23 530.27 1099.37 538.676 1134.45 498.341C1152.17 477.925 1158.31 462.102 1159.72 451.012C1169.18 466.482 1157.89 494.243 1133.18 514.8C1108.05 535.709 1078.19 541.714 1064.99 528.787Z" fill="#9B9B9B"/>
<path d="M1045.09 690.977C1052.99 693.025 1063.3 705.175 1066.41 723.471C1068.17 734.209 1062.81 744.522 1055.82 747.772C1058.85 743.745 1061.68 737.599 1060.76 729.123C1059.13 715.418 1053.98 701.714 1045.09 690.977Z" fill="#9B9B9B"/>
<path opacity="0.45" d="M1119.49 338.764C1133.18 328.31 1147.79 318.914 1163.11 310.72C1183.86 299.63 1205.96 290.8 1229.11 284.442C1256.14 277.025 1284.59 273.14 1313.96 273.14C1327.44 273.14 1340.71 273.987 1353.7 275.612C1462.54 289.034 1554.59 356.99 1601.6 451.294C1619.95 488.027 1631.46 528.716 1634.49 571.736C1635.06 579.365 1635.34 587.065 1635.34 594.765C1635.34 643.295 1624.61 689.281 1605.41 730.535C1588.26 767.41 1564.26 800.469 1535.18 828.09C1624.82 400.221 1295.11 340.954 1119.49 338.764Z" fill="url(#paint13_linear_1_2)"/>
<path d="M992.641 594.765C992.641 575.974 994.265 557.537 997.37 539.665C999.065 530.058 1001.11 520.592 1003.58 511.268C1014.73 769.953 1189.79 917.026 1442.42 889.688C1403.11 906.853 1359.63 916.39 1314.03 916.39C1175.46 916.39 1057.37 828.655 1012.26 705.599C1001.04 674.941 994.335 642.164 992.923 607.904C992.712 603.595 992.641 599.215 992.641 594.765Z" fill="url(#paint14_linear_1_2)"/>
<path d="M1056.5 531.5C1111 609 1235.89 778.5 1360.89 717.5C1485.89 656.5 1374 677.5 1370 605C1366 532.5 1359.5 516 1378.5 472C1415.71 385.827 1417.78 279.5 1383.39 232C1349 184.5 1130.39 11.9997 1058.89 22.4997C987.387 32.9997 1001.89 157 1043.39 222.5C1084.89 288 1267.39 197.53 1156.39 297C1117.89 331.5 1024.89 260 1001.89 260C978.887 260 898.137 316.27 966.887 412C1040.5 514.5 1002 454 1056.5 531.5Z" fill="#E5E5E5" fill-opacity="0.06"/>
</g>
<defs>
<filter id="filter0_f_1_2" x="240" y="740" width="14" height="14" filterUnits="userSpaceOnUse" color-interpolation-filters="sRGB">
<feFlood flood-opacity="0" result="BackgroundImageFix"/>
<feBlend mode="normal" in="SourceGraphic" in2="BackgroundImageFix" result="shape"/>
<feGaussianBlur stdDeviation="2.5" result="effect1_foregroundBlur_1_2"/>
</filter>
<filter id="filter1_f_1_2" x="1095" y="708" width="14" height="14" filterUnits="userSpaceOnUse" color-interpolation-filters="sRGB">
<feFlood flood-opacity="0" result="BackgroundImageFix"/>
<feBlend mode="normal" in="SourceGraphic" in2="BackgroundImageFix" result="shape"/>
<feGaussianBlur stdDeviation="2.5" result="effect1_foregroundBlur_1_2"/>
</filter>
<filter id="filter2_f_1_2" x="1361" y="734" width="14" height="14" filterUnits="userSpaceOnUse" color-interpolation-filters="sRGB">
<feFlood flood-opacity="0" result="BackgroundImageFix"/>
<feBlend mode="normal" in="SourceGraphic" in2="BackgroundImageFix" result="shape"/>
<feGaussianBlur stdDeviation="2.5" result="effect1_foregroundBlur_1_2"/>
</filter>
<filter id="filter3_f_1_2" x="417" y="765" width="14" height="14" filterUnits="userSpaceOnUse" color-interpolation-filters="sRGB">
<feFlood flood-opacity="0" result="BackgroundImageFix"/>
<feBlend mode="normal" in="SourceGraphic" in2="BackgroundImageFix" result="shape"/>
<feGaussianBlur stdDeviation="2.5" result="effect1_foregroundBlur_1_2"/>
</filter>
<filter id="filter4_f_1_2" x="496" y="728" width="14" height="14" filterUnits="userSpaceOnUse" color-interpolation-filters="sRGB">
<feFlood flood-opacity="0" result="BackgroundImageFix"/>
<feBlend mode="normal" in="SourceGraphic" in2="BackgroundImageFix" result="shape"/>
<feGaussianBlur stdDeviation="2.5" result="effect1_foregroundBlur_1_2"/>
</filter>
<filter id="filter5_f_1_2" x="42.9999" y="728" width="14" height="14" filterUnits="userSpaceOnUse" color-interpolation-filters="sRGB">
<feFlood flood-opacity="0" result="BackgroundImageFix"/>
<feBlend mode="normal" in="SourceGraphic" in2="BackgroundImageFix" result="shape"/>
<feGaussianBlur stdDeviation="2.5" result="effect1_foregroundBlur_1_2"/>
</filter>
<filter id="filter6_f_1_2" x="756" y="761" width="14" height="14" filterUnits="userSpaceOnUse" color-interpolation-filters="sRGB">
<feFlood flood-opacity="0" result="BackgroundImageFix"/>
<feBlend mode="normal" in="SourceGraphic" in2="BackgroundImageFix" result="shape"/>
<feGaussianBlur stdDeviation="2.5" result="effect1_foregroundBlur_1_2"/>
</filter>
<filter id="filter7_f_1_2" x="470" y="580" width="14" height="14" filterUnits="userSpaceOnUse" color-interpolation-filters="sRGB">
<feFlood flood-opacity="0" result="BackgroundImageFix"/>
<feBlend mode="normal" in="SourceGraphic" in2="BackgroundImageFix" result="shape"/>
<feGaussianBlur stdDeviation="2.5" result="effect1_foregroundBlur_1_2"/>
</filter>
<filter id="filter8_f_1_2" x="313" y="385" width="14" height="14" filterUnits="userSpaceOnUse" color-interpolation-filters="sRGB">
<feFlood flood-opacity="0" result="BackgroundImageFix"/>
<feBlend mode="normal" in="SourceGraphic" in2="BackgroundImageFix" result="shape"/>
<feGaussianBlur stdDeviation="2.5" result="effect1_foregroundBlur_1_2"/>
</filter>
<filter id="filter9_f_1_2" x="134" y="53.0001" width="14" height="14" filterUnits="userSpaceOnUse" color-interpolation-filters="sRGB">
<feFlood flood-opacity="0" result="BackgroundImageFix"/>
<feBlend mode="normal" in="SourceGraphic" in2="BackgroundImageFix" result="shape"/>
<feGaussianBlur stdDeviation="2.5" result="effect1_foregroundBlur_1_2"/>
</filter>
<filter id="filter10_f_1_2" x="415" y="25.0001" width="14" height="14" filterUnits="userSpaceOnUse" color-interpolation-filters="sRGB">
<feFlood flood-opacity="0" result="BackgroundImageFix"/>
<feBlend mode="normal" in="SourceGraphic" in2="BackgroundImageFix" result="shape"/>
<feGaussianBlur stdDeviation="2.5" result="effect1_foregroundBlur_1_2"/>
</filter>
<filter id="filter11_f_1_2" x="121" y="341" width="14" height="14" filterUnits="userSpaceOnUse" color-interpolation-filters="sRGB">
<feFlood flood-opacity="0" result="BackgroundImageFix"/>
<feBlend mode="normal" in="SourceGraphic" in2="BackgroundImageFix" result="shape"/>
<feGaussianBlur stdDeviation="2.5" result="effect1_foregroundBlur_1_2"/>
</filter>
<filter id="filter12_f_1_2" x="38.9999" y="129" width="14" height="14" filterUnits="userSpaceOnUse" color-interpolation-filters="sRGB">
<feFlood flood-opacity="0" result="BackgroundImageFix"/>
<feBlend mode="normal" in="SourceGraphic" in2="BackgroundImageFix" result="shape"/>
<feGaussianBlur stdDeviation="2.5" result="effect1_foregroundBlur_1_2"/>
</filter>
<filter id="filter13_f_1_2" x="32.9999" y="475" width="14" height="14" filterUnits="userSpaceOnUse" color-interpolation-filters="sRGB">
<feFlood flood-opacity="0" result="BackgroundImageFix"/>
<feBlend mode="normal" in="SourceGraphic" in2="BackgroundImageFix" result="shape"/>
<feGaussianBlur stdDeviation="2.5" result="effect1_foregroundBlur_1_2"/>
</filter>
<filter id="filter14_f_1_2" x="799" y="327" width="14" height="14" filterUnits="userSpaceOnUse" color-interpolation-filters="sRGB">
<feFlood flood-opacity="0" result="BackgroundImageFix"/>
<feBlend mode="normal" in="SourceGraphic" in2="BackgroundImageFix" result="shape"/>
<feGaussianBlur stdDeviation="2.5" result="effect1_foregroundBlur_1_2"/>
</filter>
<filter id="filter15_f_1_2" x="628" y="341" width="14" height="14" filterUnits="userSpaceOnUse" color-interpolation-filters="sRGB">
<feFlood flood-opacity="0" result="BackgroundImageFix"/>
<feBlend mode="normal" in="SourceGraphic" in2="BackgroundImageFix" result="shape"/>
<feGaussianBlur stdDeviation="2.5" result="effect1_foregroundBlur_1_2"/>
</filter>
<filter id="filter16_f_1_2" x="490" y="207" width="14" height="14" filterUnits="userSpaceOnUse" color-interpolation-filters="sRGB">
<feFlood flood-opacity="0" result="BackgroundImageFix"/>
<feBlend mode="normal" in="SourceGraphic" in2="BackgroundImageFix" result="shape"/>
<feGaussianBlur stdDeviation="2.5" result="effect1_foregroundBlur_1_2"/>
</filter>
<filter id="filter17_f_1_2" x="32.9999" y="286" width="14" height="14" filterUnits="userSpaceOnUse" color-interpolation-filters="sRGB">
<feFlood flood-opacity="0" result="BackgroundImageFix"/>
<feBlend mode="normal" in="SourceGraphic" in2="BackgroundImageFix" result="shape"/>
<feGaussianBlur stdDeviation="2.5" result="effect1_foregroundBlur_1_2"/>
</filter>
<filter id="filter18_f_1_2" x="255" y="319" width="14" height="14" filterUnits="userSpaceOnUse" color-interpolation-filters="sRGB">
<feFlood flood-opacity="0" result="BackgroundImageFix"/>
<feBlend mode="normal" in="SourceGraphic" in2="BackgroundImageFix" result="shape"/>
<feGaussianBlur stdDeviation="2.5" result="effect1_foregroundBlur_1_2"/>
</filter>
<filter id="filter19_f_1_2" x="1078" y="763" width="14" height="14" filterUnits="userSpaceOnUse" color-interpolation-filters="sRGB">
<feFlood flood-opacity="0" result="BackgroundImageFix"/>
<feBlend mode="normal" in="SourceGraphic" in2="BackgroundImageFix" result="shape"/>
<feGaussianBlur stdDeviation="2.5" result="effect1_foregroundBlur_1_2"/>
</filter>
<filter id="filter20_f_1_2" x="1390" y="587" width="14" height="14" filterUnits="userSpaceOnUse" color-interpolation-filters="sRGB">
<feFlood flood-opacity="0" result="BackgroundImageFix"/>
<feBlend mode="normal" in="SourceGraphic" in2="BackgroundImageFix" result="shape"/>
<feGaussianBlur stdDeviation="2.5" result="effect1_foregroundBlur_1_2"/>
</filter>
<filter id="filter21_f_1_2" x="492" y="490" width="14" height="14" filterUnits="userSpaceOnUse" color-interpolation-filters="sRGB">
<feFlood flood-opacity="0" result="BackgroundImageFix"/>
<feBlend mode="normal" in="SourceGraphic" in2="BackgroundImageFix" result="shape"/>
<feGaussianBlur stdDeviation="2.5" result="effect1_foregroundBlur_1_2"/>
</filter>
<filter id="filter22_f_1_2" x="872" y="586" width="14" height="14" filterUnits="userSpaceOnUse" color-interpolation-filters="sRGB">
<feFlood flood-opacity="0" result="BackgroundImageFix"/>
<feBlend mode="normal" in="SourceGraphic" in2="BackgroundImageFix" result="shape"/>
<feGaussianBlur stdDeviation="2.5" result="effect1_foregroundBlur_1_2"/>
</filter>
<filter id="filter23_f_1_2" x="805" y="484" width="14" height="14" filterUnits="userSpaceOnUse" color-interpolation-filters="sRGB">
<feFlood flood-opacity="0" result="BackgroundImageFix"/>
<feBlend mode="normal" in="SourceGraphic" in2="BackgroundImageFix" result="shape"/>
<feGaussianBlur stdDeviation="2.5" result="effect1_foregroundBlur_1_2"/>
</filter>
<filter id="filter24_f_1_2" x="586" y="63.0002" width="14" height="14" filterUnits="userSpaceOnUse" color-interpolation-filters="sRGB">
<feFlood flood-opacity="0" result="BackgroundImageFix"/>
<feBlend mode="normal" in="SourceGraphic" in2="BackgroundImageFix" result="shape"/>
<feGaussianBlur stdDeviation="2.5" result="effect1_foregroundBlur_1_2"/>
</filter>
<filter id="filter25_f_1_2" x="910" y="271" width="14" height="14" filterUnits="userSpaceOnUse" color-interpolation-filters="sRGB">
<feFlood flood-opacity="0" result="BackgroundImageFix"/>
<feBlend mode="normal" in="SourceGraphic" in2="BackgroundImageFix" result="shape"/>
<feGaussianBlur stdDeviation="2.5" result="effect1_foregroundBlur_1_2"/>
</filter>
<filter id="filter26_f_1_2" x="815" y="111" width="14" height="14" filterUnits="userSpaceOnUse" color-interpolation-filters="sRGB">
<feFlood flood-opacity="0" result="BackgroundImageFix"/>
<feBlend mode="normal" in="SourceGraphic" in2="BackgroundImageFix" result="shape"/>
<feGaussianBlur stdDeviation="2.5" result="effect1_foregroundBlur_1_2"/>
</filter>
<filter id="filter27_f_1_2" x="1090" y="57.0001" width="14" height="14" filterUnits="userSpaceOnUse" color-interpolation-filters="sRGB">
<feFlood flood-opacity="0" result="BackgroundImageFix"/>
<feBlend mode="normal" in="SourceGraphic" in2="BackgroundImageFix" result="shape"/>
<feGaussianBlur stdDeviation="2.5" result="effect1_foregroundBlur_1_2"/>
</filter>
<filter id="filter28_f_1_2" x="1390" y="27.0001" width="14" height="14" filterUnits="userSpaceOnUse" color-interpolation-filters="sRGB">
<feFlood flood-opacity="0" result="BackgroundImageFix"/>
<feBlend mode="normal" in="SourceGraphic" in2="BackgroundImageFix" result="shape"/>
<feGaussianBlur stdDeviation="2.5" result="effect1_foregroundBlur_1_2"/>
</filter>
<filter id="filter29_f_1_2" x="1162" y="479" width="14" height="14" filterUnits="userSpaceOnUse" color-interpolation-filters="sRGB">
<feFlood flood-opacity="0" result="BackgroundImageFix"/>
<feBlend mode="normal" in="SourceGraphic" in2="BackgroundImageFix" result="shape"/>
<feGaussianBlur stdDeviation="2.5" result="effect1_foregroundBlur_1_2"/>
</filter>
<filter id="filter30_f_1_2" x="1332" y="272" width="14" height="14" filterUnits="userSpaceOnUse" color-interpolation-filters="sRGB">
<feFlood flood-opacity="0" result="BackgroundImageFix"/>
<feBlend mode="normal" in="SourceGraphic" in2="BackgroundImageFix" result="shape"/>
<feGaussianBlur stdDeviation="2.5" result="effect1_foregroundBlur_1_2"/>
</filter>
<filter id="filter31_f_1_2" x="1278" y="146" width="14" height="14" filterUnits="userSpaceOnUse" color-interpolation-filters="sRGB">
<feFlood flood-opacity="0" result="BackgroundImageFix"/>
<feBlend mode="normal" in="SourceGraphic" in2="BackgroundImageFix" result="shape"/>
<feGaussianBlur stdDeviation="2.5" result="effect1_foregroundBlur_1_2"/>
</filter>
<radialGradient id="paint0_radial_1_2" cx="0" cy="0" r="1" gradientUnits="userSpaceOnUse" gradientTransform="translate(299.526 149.997) rotate(180) scale(65.9981 65.6177)">
<stop stop-color="#90DD6F"/>
<stop offset="1" stop-color="#B8FFA9" stop-opacity="0"/>
</radialGradient>
<radialGradient id="paint1_radial_1_2" cx="0" cy="0" r="1" gradientUnits="userSpaceOnUse" gradientTransform="translate(296.866 171.379) rotate(180) scale(67.0302 66.6438)">
<stop stop-color="#00B3DC"/>
<stop offset="1" stop-color="#056DB0"/>
</radialGradient>
<linearGradient id="paint2_linear_1_2" x1="335.897" y1="234.553" x2="323.372" y2="76.5945" gradientUnits="userSpaceOnUse">
<stop stop-color="#F2F236"/>
<stop offset="1" stop-color="#F2F236" stop-opacity="0"/>
</linearGradient>
<linearGradient id="paint3_linear_1_2" x1="273.92" y1="239.468" x2="261.394" y2="81.509" gradientUnits="userSpaceOnUse">
<stop stop-color="#F2F236"/>
<stop offset="1" stop-color="#F2F236" stop-opacity="0"/>
</linearGradient>
<linearGradient id="paint4_linear_1_2" x1="268.999" y1="239.858" x2="256.473" y2="81.8995" gradientUnits="userSpaceOnUse">
<stop stop-color="#F2F236"/>
<stop offset="1" stop-color="#F2F236" stop-opacity="0"/>
</linearGradient>
<linearGradient id="paint5_linear_1_2" x1="307.7" y1="236.789" x2="295.174" y2="78.8301" gradientUnits="userSpaceOnUse">
<stop stop-color="#F2F236"/>
<stop offset="1" stop-color="#F2F236" stop-opacity="0"/>
</linearGradient>
<linearGradient id="paint6_linear_1_2" x1="286.313" y1="238.485" x2="273.788" y2="80.526" gradientUnits="userSpaceOnUse">
<stop stop-color="#F2F236"/>
<stop offset="1" stop-color="#F2F236" stop-opacity="0"/>
</linearGradient>
<linearGradient id="paint7_linear_1_2" x1="317.861" y1="235.983" x2="305.336" y2="78.0246" gradientUnits="userSpaceOnUse">
<stop stop-color="#F2F236"/>
<stop offset="1" stop-color="#F2F236" stop-opacity="0"/>
</linearGradient>
<linearGradient id="paint8_linear_1_2" x1="308.003" y1="78.7965" x2="299.813" y2="153.905" gradientUnits="userSpaceOnUse">
<stop stop-color="#00ACD8"/>
<stop offset="1" stop-color="#0983BD"/>
</linearGradient>
<linearGradient id="paint9_linear_1_2" x1="302.434" y1="82.0249" x2="293.28" y2="160.526" gradientUnits="userSpaceOnUse">
<stop stop-color="#056EB1"/>
<stop offset="1" stop-color="#00A9D7" stop-opacity="0.3"/>
</linearGradient>
<linearGradient id="paint10_linear_1_2" x1="259.495" y1="235.05" x2="293.94" y2="166.733" gradientUnits="userSpaceOnUse">
<stop stop-color="#E2FFB5"/>
<stop offset="1" stop-color="#FFFFB3" stop-opacity="0"/>
</linearGradient>
<radialGradient id="paint11_radial_1_2" cx="0" cy="0" r="1" gradientUnits="userSpaceOnUse" gradientTransform="translate(1313.99 594.023) rotate(180) scale(384.93 385.218)">
<stop stop-color="#F8F8F8"/>
<stop offset="1" stop-color="white" stop-opacity="0"/>
</radialGradient>
<radialGradient id="paint12_radial_1_2" cx="0" cy="0" r="1" gradientUnits="userSpaceOnUse" gradientTransform="translate(1328.18 765.038) rotate(180) scale(490.729 491.096)">
<stop stop-color="#E8E8E8"/>
<stop offset="1" stop-color="#DFDFDF"/>
</radialGradient>
<linearGradient id="paint13_linear_1_2" x1="1376.1" y1="129.597" x2="1379.24" y2="926.644" gradientUnits="userSpaceOnUse">
<stop/>
<stop offset="1" stop-opacity="0.2"/>
</linearGradient>
<linearGradient id="paint14_linear_1_2" x1="1028.15" y1="916.532" x2="1223.83" y2="699.883" gradientUnits="userSpaceOnUse">
<stop stop-color="#B7B7B7"/>
<stop offset="0.557292" stop-color="#AEAEAE" stop-opacity="0.2"/>
</linearGradient>
<clipPath id="clip0_1_2">
<rect width="1440" height="800" fill="white" transform="translate(1440 800) rotate(180)"/>
</clipPath>
<clipPath id="clip1_1_2">
<rect width="153" height="152" fill="white" transform="translate(376.023 226) rotate(180)"/>
</clipPath>
</defs>
</svg>
